<svg width="12" height="12" viewBox="0 0 12 12" fill="none" xmlns="http://www.w3.org/2000/svg">
<path fill-rule="evenodd" clip-rule="evenodd" d="M5.92654 4.51531L9.48207 0.959769C9.86236 0.57948 10.4789 0.579479 10.8592 0.959768C11.2395 1.34006 11.2395 1.95663 10.8592 2.33692L7.30368 5.89245L10.8389 9.42771C11.2343 9.82311 11.2343 10.4642 10.8389 10.8596C10.4435 11.255 9.80247 11.255 9.40707 10.8596L5.87181 7.32433L2.33687 10.8593C1.95659 11.2396 1.34002 11.2396 0.959727 10.8593C0.579438 10.479 0.579438 9.8624 0.959727 9.48211L4.49466 5.94718L0.939446 2.39196C0.544045 1.99656 0.544045 1.35549 0.939446 0.96009C1.33485 0.564689 1.97592 0.564689 2.37132 0.96009L5.92654 4.51531Z" fill="#616F82"/>
</svg>
